<?xml version="1.0" encoding="utf-8"?>
<!-- Generator: Adobe Illustrator 15.0.0, SVG Export Plug-In  -->
<!DOCTYPE svg PUBLIC "-//W3C//DTD SVG 1.1//EN" "http://www.w3.org/Graphics/SVG/1.1/DTD/svg11.dtd" [
	<!ENTITY ns_flows "http://ns.adobe.com/Flows/1.0/">
]>
<svg version="1.1"
	 xmlns="http://www.w3.org/2000/svg" xmlns:xlink="http://www.w3.org/1999/xlink" xmlns:a="http://ns.adobe.com/AdobeSVGViewerExtensions/3.0/"
	 x="0px" y="0px" width="165px" height="46px" viewBox="12.745 1.76 165 46" enable-background="new 12.745 1.76 165 46"
	 xml:space="preserve">
<defs>
</defs>
<g>
	<defs>
		<path id="SVGID_6_" d="M41.226,24.198c0,4.814,3.902,8.715,8.716,8.715V27.74c0-4.813-3.902-8.715-8.716-8.715V24.198z"/>
	</defs>
	<clipPath id="SVGID_7_">
		<use xlink:href="#SVGID_6_"  overflow="visible"/>
	</clipPath>
	<defs>
		<filter id="Adobe_OpacityMaskFilter" filterUnits="userSpaceOnUse" x="34.589" y="14.86" width="21.989" height="22.219">
			<feColorMatrix  type="matrix" values="1 0 0 0 0  0 1 0 0 0  0 0 1 0 0  0 0 0 1 0"/>
		</filter>
	</defs>
	<mask maskUnits="userSpaceOnUse" x="34.589" y="14.86" width="21.989" height="22.219" id="SVGID_8_">
		<g filter="url(#Adobe_OpacityMaskFilter)">
			
				<linearGradient id="SVGID_9_" gradientUnits="userSpaceOnUse" x1="-154.4648" y1="268.5771" x2="-153.975" y2="268.5771" gradientTransform="matrix(24.171 32.7407 32.7407 -24.171 -5022.2856 11564.1396)">
				<stop  offset="0" style="stop-color:#FFFFFF"/>
				<stop  offset="0.8816" style="stop-color:#F9F9F9"/>
				<stop  offset="1" style="stop-color:#F7F7F7"/>
			</linearGradient>
			<polygon clip-path="url(#SVGID_7_)" fill="url(#SVGID_9_)" points="46.867,14.86 56.579,28.014 44.3,37.079 34.589,23.925 			"/>
		</g>
	</mask>
	
		<linearGradient id="SVGID_10_" gradientUnits="userSpaceOnUse" x1="-154.4653" y1="268.5771" x2="-153.9752" y2="268.5771" gradientTransform="matrix(24.171 32.7407 32.7407 -24.171 -5022.27 11564.1406)">
		<stop  offset="0" style="stop-color:#77D281"/>
		<stop  offset="0.1452" style="stop-color:#77D387"/>
		<stop  offset="0.3464" style="stop-color:#79D499"/>
		<stop  offset="0.5801" style="stop-color:#7BD6B7"/>
		<stop  offset="0.8364" style="stop-color:#7EDADF"/>
		<stop  offset="1" style="stop-color:#80DCFD"/>
	</linearGradient>
	<polygon clip-path="url(#SVGID_7_)" mask="url(#SVGID_8_)" fill="url(#SVGID_10_)" points="46.867,14.86 56.579,28.014 
		44.3,37.079 34.589,23.925 	"/>
</g>
<g>
	<defs>
		<path id="SVGID_5_" d="M49.942,8.762c-4.813,0-8.716,3.903-8.716,8.716h5.173c4.814,0,8.716-3.902,8.716-8.716H49.942z"/>
	</defs>
	<clipPath id="SVGID_11_">
		<use xlink:href="#SVGID_5_"  overflow="visible"/>
	</clipPath>
	<defs>
		<filter id="Adobe_OpacityMaskFilter_1_" filterUnits="userSpaceOnUse" x="37.019" y="2.058" width="22.304" height="22.125">
			<feColorMatrix  type="matrix" values="1 0 0 0 0  0 1 0 0 0  0 0 1 0 0  0 0 0 1 0"/>
		</filter>
	</defs>
	<mask maskUnits="userSpaceOnUse" x="37.019" y="2.058" width="22.304" height="22.125" id="SVGID_12_">
		<g filter="url(#Adobe_OpacityMaskFilter_1_)">
			
				<linearGradient id="SVGID_13_" gradientUnits="userSpaceOnUse" x1="-158.4414" y1="275.8184" x2="-157.9511" y2="275.8184" gradientTransform="matrix(37.9551 -49.574 -49.574 -37.9551 19721.6797 2644.9856)">
				<stop  offset="0" style="stop-color:#FFFFFF"/>
				<stop  offset="0.2178" style="stop-color:#FFFFFF"/>
				<stop  offset="0.7622" style="stop-color:#FCFCFC"/>
				<stop  offset="1" style="stop-color:#F7F7F7"/>
			</linearGradient>
			<polygon clip-path="url(#SVGID_11_)" fill="url(#SVGID_13_)" points="37.019,14.257 46.358,2.058 59.323,11.983 49.983,24.182 
							"/>
		</g>
	</mask>
	
		<linearGradient id="SVGID_14_" gradientUnits="userSpaceOnUse" x1="-158.4409" y1="275.8184" x2="-157.9507" y2="275.8184" gradientTransform="matrix(37.9551 -49.574 -49.574 -37.9551 19721.6797 2645.0171)">
		<stop  offset="0" style="stop-color:#69BA80"/>
		<stop  offset="0.2178" style="stop-color:#69BA80"/>
		<stop  offset="0.3952" style="stop-color:#6ABB83"/>
		<stop  offset="0.5319" style="stop-color:#6BBD8D"/>
		<stop  offset="0.6551" style="stop-color:#6EC29D"/>
		<stop  offset="0.7701" style="stop-color:#73C8B4"/>
		<stop  offset="0.8797" style="stop-color:#78D0D2"/>
		<stop  offset="0.9836" style="stop-color:#7FDAF7"/>
		<stop  offset="1" style="stop-color:#80DCFD"/>
	</linearGradient>
	<polygon clip-path="url(#SVGID_11_)" mask="url(#SVGID_12_)" fill="url(#SVGID_14_)" points="37.019,14.257 46.358,2.058 
		59.323,11.983 49.983,24.182 	"/>
</g>
<g>
	<defs>
		<path id="SVGID_4_" d="M30.963,8.762c0,4.813,3.902,8.716,8.716,8.716v-5.173c0-4.813-3.904-8.716-8.716-8.716V8.762z"/>
	</defs>
	<clipPath id="SVGID_15_">
		<use xlink:href="#SVGID_4_"  overflow="visible"/>
	</clipPath>
	<defs>
		<filter id="Adobe_OpacityMaskFilter_2_" filterUnits="userSpaceOnUse" x="25.244" y="0" width="20.154" height="21.067">
			<feColorMatrix  type="matrix" values="1 0 0 0 0  0 1 0 0 0  0 0 1 0 0  0 0 0 1 0"/>
		</filter>
	</defs>
	<mask maskUnits="userSpaceOnUse" x="25.244" y="0" width="20.154" height="21.067" id="SVGID_16_">
		<g filter="url(#Adobe_OpacityMaskFilter_2_)">
			
				<linearGradient id="SVGID_17_" gradientUnits="userSpaceOnUse" x1="-155.3516" y1="278.332" x2="-154.8612" y2="278.332" gradientTransform="matrix(-32.1763 -61.2387 -61.2387 32.1763 12087.5215 -18446.9473)">
				<stop  offset="0" style="stop-color:#FFFFFF"/>
				<stop  offset="0.005" style="stop-color:#FFFFFF"/>
				<stop  offset="0.9824" style="stop-color:#F8F8F8"/>
				<stop  offset="1" style="stop-color:#F7F7F7"/>
			</linearGradient>
			<polygon clip-path="url(#SVGID_15_)" fill="url(#SVGID_17_)" points="32.849,21.067 25.244,6.595 37.794,0 45.398,14.474 			"/>
		</g>
	</mask>
	
		<linearGradient id="SVGID_18_" gradientUnits="userSpaceOnUse" x1="-155.3516" y1="278.332" x2="-154.8612" y2="278.332" gradientTransform="matrix(-32.1763 -61.2387 -61.2387 32.1763 12087.5215 -18446.9473)">
		<stop  offset="0" style="stop-color:#69BA80"/>
		<stop  offset="0.005" style="stop-color:#69BA80"/>
		<stop  offset="0.1462" style="stop-color:#6ABC87"/>
		<stop  offset="0.3576" style="stop-color:#6EC29C"/>
		<stop  offset="0.6127" style="stop-color:#74CBBD"/>
		<stop  offset="0.8998" style="stop-color:#7DD7EB"/>
		<stop  offset="1" style="stop-color:#80DCFD"/>
	</linearGradient>
	<polygon clip-path="url(#SVGID_15_)" mask="url(#SVGID_16_)" fill="url(#SVGID_18_)" points="32.849,21.067 25.244,6.595 37.794,0 
		45.398,14.474 	"/>
</g>
<g>
	<defs>
		<path id="SVGID_3_" d="M30.913,27.74v5.134c0,2.411-1.956,4.365-4.366,4.365s-4.365-1.954-4.365-4.365l-0.008-0.018
			c-3.363,1.773-1.165,13.119,6.9,13.071c5.829-0.034,10.555-4.726,10.555-10.556V19.025C34.815,19.025,30.913,22.927,30.913,27.74"
			/>
	</defs>
	<clipPath id="SVGID_19_">
		<use xlink:href="#SVGID_3_"  overflow="visible"/>
	</clipPath>
	<defs>
		<filter id="Adobe_OpacityMaskFilter_3_" filterUnits="userSpaceOnUse" x="9.876" y="12.123" width="38.686" height="40.753">
			<feColorMatrix  type="matrix" values="1 0 0 0 0  0 1 0 0 0  0 0 1 0 0  0 0 0 1 0"/>
		</filter>
	</defs>
	<mask maskUnits="userSpaceOnUse" x="9.876" y="12.123" width="38.686" height="40.753" id="SVGID_20_">
		<g filter="url(#Adobe_OpacityMaskFilter_3_)">
			
				<linearGradient id="SVGID_21_" gradientUnits="userSpaceOnUse" x1="-153.7231" y1="272.2441" x2="-153.2328" y2="272.2441" gradientTransform="matrix(32.2781 85.1391 85.1391 -32.2781 -18197.2207 21882.1621)">
				<stop  offset="0" style="stop-color:#FFFFFF"/>
				<stop  offset="1" style="stop-color:#F7F7F7"/>
			</linearGradient>
			<polygon clip-path="url(#SVGID_19_)" fill="url(#SVGID_21_)" points="37.012,12.123 48.563,42.589 21.427,52.876 9.876,22.412 
							"/>
		</g>
	</mask>
	
		<linearGradient id="SVGID_22_" gradientUnits="userSpaceOnUse" x1="-153.7231" y1="272.2441" x2="-153.2328" y2="272.2441" gradientTransform="matrix(32.2781 85.1391 85.1391 -32.2781 -18197.2207 21882.1621)">
		<stop  offset="0" style="stop-color:#7B1B59"/>
		<stop  offset="0.1552" style="stop-color:#7C336D"/>
		<stop  offset="0.4834" style="stop-color:#7D70A2"/>
		<stop  offset="0.9545" style="stop-color:#80D2F5"/>
		<stop  offset="1" style="stop-color:#80DCFD"/>
	</linearGradient>
	<polygon clip-path="url(#SVGID_19_)" mask="url(#SVGID_20_)" fill="url(#SVGID_22_)" points="37.012,12.123 48.563,42.589 
		21.427,52.876 9.876,22.412 	"/>
</g>
<g>
	<defs>
		<path id="SVGID_2_" d="M26.598,37.239c0.164-0.002,0.324-0.014,0.481-0.035C26.771,37.234,26.598,37.239,26.598,37.239
			 M30.914,27.618l-0.001,5.307c0.003,1.931-1.512,3.987-3.834,4.279c2.361-0.223,12.601-1.842,12.601-13.126v-5.052
			C34.865,19.025,30.914,22.806,30.914,27.618"/>
	</defs>
	<clipPath id="SVGID_23_">
		<use xlink:href="#SVGID_2_"  overflow="visible"/>
	</clipPath>
	<defs>
		<filter id="Adobe_OpacityMaskFilter_4_" filterUnits="userSpaceOnUse" x="19.145" y="13.674" width="27.986" height="28.919">
			<feColorMatrix  type="matrix" values="1 0 0 0 0  0 1 0 0 0  0 0 1 0 0  0 0 0 1 0"/>
		</filter>
	</defs>
	<mask maskUnits="userSpaceOnUse" x="19.145" y="13.674" width="27.986" height="28.919" id="SVGID_24_">
		<g filter="url(#Adobe_OpacityMaskFilter_4_)">
			
				<linearGradient id="SVGID_25_" gradientUnits="userSpaceOnUse" x1="-153.5571" y1="270.374" x2="-153.0673" y2="270.374" gradientTransform="matrix(24.8508 47.8261 47.8261 -24.8508 -9092.2754 14071.0664)">
				<stop  offset="0" style="stop-color:#FFFFFF"/>
				<stop  offset="1" style="stop-color:#F7F7F7"/>
			</linearGradient>
			<polygon clip-path="url(#SVGID_23_)" fill="url(#SVGID_25_)" points="36.898,13.674 47.131,33.367 29.379,42.593 19.145,22.898 
							"/>
		</g>
	</mask>
	
		<linearGradient id="SVGID_26_" gradientUnits="userSpaceOnUse" x1="-153.5571" y1="270.374" x2="-153.0673" y2="270.374" gradientTransform="matrix(24.8508 47.8261 47.8261 -24.8508 -9092.2754 14071.0664)">
		<stop  offset="0" style="stop-color:#7B1B59"/>
		<stop  offset="0.1552" style="stop-color:#7C336D"/>
		<stop  offset="0.4834" style="stop-color:#7D70A2"/>
		<stop  offset="0.9545" style="stop-color:#80D2F5"/>
		<stop  offset="1" style="stop-color:#80DCFD"/>
	</linearGradient>
	<polygon clip-path="url(#SVGID_23_)" mask="url(#SVGID_24_)" fill="url(#SVGID_26_)" points="36.898,13.674 47.131,33.367 
		29.379,42.593 19.145,22.898 	"/>
</g>
<g>
	<defs>
		<path id="SVGID_1_" d="M13.516,35.403c0.017,5.817,4.821,10.544,10.555,10.524c0.179,0,0.606,0.001,1.154,0.002
			c1.052,0.001,2.546,0.003,3.569-0.005c0,0,0.56,0.002,0.74-0.009c0,0-0.179-0.015-0.702-0.092c-7.078-1.054-6.6-12.949-6.6-12.949
			V14.91c0-4.814-3.902-8.718-8.716-8.718V35.403z"/>
	</defs>
	<clipPath id="SVGID_27_">
		<use xlink:href="#SVGID_1_"  overflow="visible"/>
	</clipPath>
	<defs>
		<filter id="Adobe_OpacityMaskFilter_5_" filterUnits="userSpaceOnUse" x="0" y="0.746" width="43.049" height="50.647">
			<feColorMatrix  type="matrix" values="1 0 0 0 0  0 1 0 0 0  0 0 1 0 0  0 0 0 1 0"/>
		</filter>
	</defs>
	<mask maskUnits="userSpaceOnUse" x="0" y="0.746" width="43.049" height="50.647" id="SVGID_28_">
		<g filter="url(#Adobe_OpacityMaskFilter_5_)">
			
				<linearGradient id="SVGID_29_" gradientUnits="userSpaceOnUse" x1="-154.0273" y1="273.1152" x2="-153.5372" y2="273.1152" gradientTransform="matrix(47.4921 121.058 121.058 -47.4921 -25734.1172 31622.8379)">
				<stop  offset="0" style="stop-color:#FFFFFF"/>
				<stop  offset="1" style="stop-color:#F7F7F7"/>
			</linearGradient>
			<polygon clip-path="url(#SVGID_27_)" fill="url(#SVGID_29_)" points="27.397,0.746 43.049,40.645 15.653,51.394 0,11.496 			"/>
		</g>
	</mask>
	
		<linearGradient id="SVGID_30_" gradientUnits="userSpaceOnUse" x1="-154.0273" y1="273.1143" x2="-153.5372" y2="273.1143" gradientTransform="matrix(47.4921 121.058 121.058 -47.4921 -25734.0547 31622.8379)">
		<stop  offset="0" style="stop-color:#7B1B59"/>
		<stop  offset="0.1552" style="stop-color:#7C336D"/>
		<stop  offset="0.4834" style="stop-color:#7D70A2"/>
		<stop  offset="0.9545" style="stop-color:#80D2F5"/>
		<stop  offset="1" style="stop-color:#80DCFD"/>
	</linearGradient>
	<polygon clip-path="url(#SVGID_27_)" mask="url(#SVGID_28_)" fill="url(#SVGID_30_)" points="27.397,0.746 43.049,40.645 
		15.653,51.394 0,11.496 	"/>
</g>
<linearGradient id="SVGID_31_" gradientUnits="userSpaceOnUse" x1="54.0854" y1="23.6099" x2="176.2048" y2="46.5228">
	<stop  offset="0" style="stop-color:#69BA80"/>
	<stop  offset="0.005" style="stop-color:#69BA80"/>
	<stop  offset="0.1462" style="stop-color:#6ABC87"/>
	<stop  offset="0.3576" style="stop-color:#6EC29C"/>
	<stop  offset="0.6127" style="stop-color:#74CBBD"/>
	<stop  offset="0.8998" style="stop-color:#7DD7EB"/>
	<stop  offset="1" style="stop-color:#80DCFD"/>
</linearGradient>
<path fill="url(#SVGID_31_)" d="M65.872,24.61c0,1-0.124,1.894-0.373,2.683c-0.249,0.787-0.618,1.456-1.108,2.007
	c-0.49,0.548-1.098,0.969-1.82,1.257c-0.724,0.288-1.56,0.432-2.51,0.432c-0.938,0-1.755-0.121-2.454-0.367
	c-0.698-0.246-1.28-0.619-1.746-1.124c-0.466-0.5-0.814-1.142-1.048-1.915c-0.232-0.777-0.349-1.696-0.349-2.757
	c0-0.976,0.124-1.852,0.372-2.632c0.249-0.778,0.618-1.44,1.108-1.987c0.491-0.546,1.097-0.965,1.821-1.257
	c0.723-0.292,1.562-0.438,2.519-0.438c0.912,0,1.717,0.121,2.417,0.362c0.698,0.242,1.281,0.615,1.75,1.118
	c0.468,0.503,0.822,1.138,1.062,1.903C65.752,22.663,65.872,23.568,65.872,24.61z M63.302,24.741c0-0.633-0.049-1.209-0.149-1.729
	c-0.099-0.516-0.269-0.961-0.507-1.331c-0.24-0.369-0.558-0.655-0.955-0.856c-0.397-0.202-0.894-0.303-1.49-0.303
	c-0.603,0-1.105,0.113-1.508,0.341c-0.404,0.226-0.729,0.527-0.978,0.908c-0.249,0.377-0.424,0.82-0.526,1.326
	c-0.103,0.506-0.154,1.042-0.154,1.606c0,0.659,0.05,1.25,0.149,1.773c0.1,0.526,0.267,0.974,0.503,1.345
	c0.236,0.373,0.552,0.659,0.95,0.853c0.397,0.196,0.897,0.294,1.5,0.294c0.602,0,1.105-0.112,1.508-0.336
	c0.403-0.223,0.729-0.527,0.978-0.91c0.248-0.386,0.423-0.835,0.526-1.348C63.25,25.863,63.302,25.318,63.302,24.741z"/>
<linearGradient id="SVGID_32_" gradientUnits="userSpaceOnUse" x1="54.5146" y1="21.3062" x2="176.6528" y2="44.2226">
	<stop  offset="0" style="stop-color:#69BA80"/>
	<stop  offset="0.005" style="stop-color:#69BA80"/>
	<stop  offset="0.1462" style="stop-color:#6ABC87"/>
	<stop  offset="0.3576" style="stop-color:#6EC29C"/>
	<stop  offset="0.6127" style="stop-color:#74CBBD"/>
	<stop  offset="0.8998" style="stop-color:#7DD7EB"/>
	<stop  offset="1" style="stop-color:#80DCFD"/>
</linearGradient>
<path fill="url(#SVGID_32_)" d="M77.865,29.919c0,0.142-0.024,0.269-0.074,0.381c-0.05,0.113-0.116,0.205-0.201,0.277
	c-0.083,0.075-0.184,0.13-0.298,0.165c-0.115,0.033-0.231,0.05-0.349,0.05H75.9c-0.217,0-0.405-0.021-0.564-0.064
	c-0.157-0.042-0.304-0.121-0.437-0.235c-0.134-0.117-0.263-0.271-0.387-0.467c-0.124-0.196-0.264-0.448-0.419-0.76l-2.999-5.632
	c-0.173-0.336-0.351-0.698-0.53-1.085c-0.18-0.388-0.341-0.765-0.484-1.133h-0.019c0.025,0.447,0.043,0.895,0.056,1.336
	c0.013,0.444,0.019,0.903,0.019,1.375v6.303c0,0.063-0.017,0.118-0.051,0.169c-0.034,0.05-0.093,0.092-0.176,0.123
	c-0.084,0.035-0.198,0.063-0.34,0.081c-0.143,0.019-0.326,0.027-0.549,0.027c-0.217,0-0.397-0.009-0.54-0.027
	s-0.254-0.046-0.335-0.081c-0.081-0.031-0.137-0.073-0.168-0.123c-0.031-0.051-0.046-0.106-0.046-0.169V19.601
	c0-0.292,0.085-0.511,0.256-0.655c0.17-0.146,0.38-0.22,0.628-0.22h1.313c0.236,0,0.435,0.021,0.596,0.061
	c0.161,0.041,0.306,0.107,0.433,0.2c0.127,0.094,0.247,0.223,0.358,0.387c0.112,0.165,0.227,0.368,0.344,0.61l2.347,4.405
	c0.137,0.267,0.271,0.529,0.405,0.786c0.134,0.257,0.263,0.516,0.387,0.774c0.124,0.256,0.245,0.509,0.363,0.757
	c0.118,0.249,0.232,0.497,0.345,0.745h0.009c-0.019-0.435-0.032-0.886-0.042-1.358c-0.009-0.472-0.014-0.923-0.014-1.351v-5.652
	c0-0.063,0.019-0.118,0.056-0.167c0.037-0.05,0.099-0.093,0.186-0.13s0.202-0.063,0.345-0.08c0.143-0.016,0.326-0.023,0.549-0.023
	c0.211,0,0.388,0.007,0.53,0.023c0.143,0.016,0.253,0.042,0.331,0.08c0.077,0.038,0.132,0.08,0.163,0.13
	c0.031,0.05,0.046,0.105,0.046,0.167V29.919z"/>
<linearGradient id="SVGID_33_" gradientUnits="userSpaceOnUse" x1="54.8208" y1="19.6855" x2="176.949" y2="42.6001">
	<stop  offset="0" style="stop-color:#69BA80"/>
	<stop  offset="0.005" style="stop-color:#69BA80"/>
	<stop  offset="0.1462" style="stop-color:#6ABC87"/>
	<stop  offset="0.3576" style="stop-color:#6EC29C"/>
	<stop  offset="0.6127" style="stop-color:#74CBBD"/>
	<stop  offset="0.8998" style="stop-color:#7DD7EB"/>
	<stop  offset="1" style="stop-color:#80DCFD"/>
</linearGradient>
<path fill="url(#SVGID_33_)" d="M87.112,29.75c0,0.188-0.007,0.344-0.023,0.471c-0.015,0.127-0.039,0.233-0.07,0.315
	c-0.031,0.085-0.069,0.146-0.117,0.183c-0.045,0.038-0.101,0.057-0.163,0.057h-5.521c-0.205,0-0.377-0.061-0.517-0.182
	c-0.139-0.123-0.209-0.318-0.209-0.592V19.061c0-0.063,0.02-0.118,0.06-0.168c0.04-0.05,0.107-0.09,0.201-0.121
	c0.093-0.031,0.219-0.056,0.377-0.074c0.159-0.019,0.355-0.028,0.591-0.028c0.242,0,0.44,0.009,0.596,0.028
	c0.155,0.018,0.279,0.042,0.373,0.074c0.093,0.031,0.16,0.071,0.2,0.121c0.04,0.05,0.061,0.105,0.061,0.168v9.692h3.79
	c0.062,0,0.117,0.017,0.163,0.053c0.048,0.035,0.086,0.089,0.117,0.166c0.031,0.08,0.055,0.182,0.07,0.309
	C87.104,29.408,87.112,29.564,87.112,29.75z"/>
<linearGradient id="SVGID_34_" gradientUnits="userSpaceOnUse" x1="55.3906" y1="16.6489" x2="177.5195" y2="39.5636">
	<stop  offset="0" style="stop-color:#69BA80"/>
	<stop  offset="0.005" style="stop-color:#69BA80"/>
	<stop  offset="0.1462" style="stop-color:#6ABC87"/>
	<stop  offset="0.3576" style="stop-color:#6EC29C"/>
	<stop  offset="0.6127" style="stop-color:#74CBBD"/>
	<stop  offset="0.8998" style="stop-color:#7DD7EB"/>
	<stop  offset="1" style="stop-color:#80DCFD"/>
</linearGradient>
<path fill="url(#SVGID_34_)" d="M91.088,16.49c0,0.441-0.093,0.75-0.276,0.928c-0.181,0.176-0.522,0.265-1.02,0.265
	c-0.496,0-0.835-0.085-1.013-0.256c-0.182-0.17-0.271-0.467-0.271-0.889c0-0.447,0.093-0.757,0.279-0.931
	c0.186-0.174,0.528-0.261,1.024-0.261c0.497,0,0.834,0.083,1.011,0.251C90.999,15.765,91.088,16.063,91.088,16.49z M91.015,30.439
	c0,0.061-0.022,0.117-0.062,0.167c-0.041,0.05-0.107,0.092-0.2,0.121c-0.095,0.031-0.218,0.057-0.372,0.075
	c-0.157,0.019-0.355,0.027-0.597,0.027c-0.237,0-0.434-0.009-0.592-0.027c-0.158-0.019-0.284-0.044-0.376-0.075
	c-0.095-0.029-0.16-0.071-0.201-0.121c-0.04-0.05-0.06-0.106-0.06-0.167V19.061c0-0.063,0.02-0.118,0.06-0.168
	c0.041-0.05,0.109-0.09,0.206-0.121c0.097-0.031,0.222-0.056,0.377-0.074c0.156-0.019,0.35-0.028,0.587-0.028
	c0.241,0,0.44,0.009,0.597,0.028c0.154,0.018,0.277,0.042,0.372,0.074c0.093,0.031,0.159,0.071,0.2,0.121
	c0.04,0.05,0.062,0.105,0.062,0.168V30.439z"/>
<linearGradient id="SVGID_35_" gradientUnits="userSpaceOnUse" x1="55.3882" y1="16.6465" x2="177.5236" y2="39.5624">
	<stop  offset="0" style="stop-color:#69BA80"/>
	<stop  offset="0.005" style="stop-color:#69BA80"/>
	<stop  offset="0.1462" style="stop-color:#6ABC87"/>
	<stop  offset="0.3576" style="stop-color:#6EC29C"/>
	<stop  offset="0.6127" style="stop-color:#74CBBD"/>
	<stop  offset="0.8998" style="stop-color:#7DD7EB"/>
	<stop  offset="1" style="stop-color:#80DCFD"/>
</linearGradient>
<path fill="url(#SVGID_35_)" d="M103.575,29.919c0,0.142-0.025,0.269-0.075,0.381c-0.049,0.113-0.116,0.205-0.199,0.277
	c-0.084,0.075-0.185,0.13-0.298,0.165c-0.116,0.033-0.232,0.05-0.351,0.05h-1.042c-0.218,0-0.406-0.021-0.563-0.064
	c-0.158-0.042-0.304-0.121-0.438-0.235c-0.134-0.117-0.263-0.271-0.387-0.467c-0.124-0.196-0.265-0.448-0.418-0.76l-2.999-5.632
	c-0.176-0.336-0.351-0.698-0.531-1.085c-0.18-0.388-0.342-0.765-0.484-1.133h-0.019c0.024,0.447,0.044,0.895,0.056,1.336
	c0.014,0.444,0.02,0.903,0.02,1.375v6.303c0,0.063-0.018,0.118-0.051,0.169c-0.035,0.05-0.094,0.092-0.179,0.123
	c-0.083,0.035-0.196,0.063-0.34,0.081c-0.142,0.019-0.325,0.027-0.548,0.027c-0.217,0-0.398-0.009-0.541-0.027
	c-0.143-0.019-0.254-0.046-0.335-0.081c-0.081-0.031-0.137-0.073-0.167-0.123c-0.031-0.051-0.048-0.106-0.048-0.169V19.601
	c0-0.292,0.085-0.511,0.256-0.655c0.171-0.146,0.38-0.22,0.629-0.22h1.312c0.235,0,0.435,0.021,0.597,0.061
	c0.161,0.041,0.307,0.107,0.434,0.2c0.127,0.094,0.246,0.223,0.358,0.387c0.111,0.165,0.227,0.368,0.345,0.61l2.347,4.405
	c0.136,0.267,0.271,0.529,0.404,0.786c0.134,0.257,0.263,0.516,0.387,0.774c0.124,0.256,0.244,0.509,0.364,0.757
	c0.116,0.249,0.231,0.497,0.344,0.745h0.009c-0.019-0.435-0.033-0.886-0.041-1.358c-0.011-0.472-0.015-0.923-0.015-1.351v-5.652
	c0-0.063,0.018-0.118,0.056-0.167c0.037-0.05,0.099-0.093,0.187-0.13c0.086-0.038,0.202-0.063,0.345-0.08
	c0.143-0.016,0.325-0.023,0.548-0.023c0.212,0,0.39,0.007,0.532,0.023c0.143,0.016,0.253,0.042,0.33,0.08
	c0.078,0.038,0.132,0.08,0.164,0.13c0.029,0.05,0.046,0.105,0.046,0.167V29.919z"/>
<linearGradient id="SVGID_36_" gradientUnits="userSpaceOnUse" x1="55.7739" y1="14.5942" x2="177.9077" y2="37.5098">
	<stop  offset="0" style="stop-color:#69BA80"/>
	<stop  offset="0.005" style="stop-color:#69BA80"/>
	<stop  offset="0.1462" style="stop-color:#6ABC87"/>
	<stop  offset="0.3576" style="stop-color:#6EC29C"/>
	<stop  offset="0.6127" style="stop-color:#74CBBD"/>
	<stop  offset="0.8998" style="stop-color:#7DD7EB"/>
	<stop  offset="1" style="stop-color:#80DCFD"/>
</linearGradient>
<path fill="url(#SVGID_36_)" d="M113.342,29.816c0,0.18-0.008,0.329-0.024,0.452c-0.015,0.119-0.038,0.217-0.069,0.292
	c-0.03,0.075-0.069,0.13-0.117,0.161c-0.046,0.035-0.098,0.054-0.152,0.054h-6.053c-0.205,0-0.377-0.061-0.518-0.182
	c-0.139-0.123-0.208-0.318-0.208-0.592V19.499c0-0.273,0.069-0.471,0.208-0.591c0.141-0.122,0.313-0.183,0.518-0.183h6.016
	c0.055,0,0.104,0.016,0.148,0.047c0.043,0.031,0.079,0.085,0.112,0.163c0.03,0.078,0.054,0.177,0.069,0.298
	c0.015,0.122,0.023,0.275,0.023,0.46c0,0.174-0.009,0.321-0.023,0.443c-0.016,0.12-0.039,0.219-0.069,0.293
	c-0.033,0.074-0.069,0.129-0.112,0.163c-0.045,0.034-0.094,0.051-0.148,0.051h-4.304v2.943h3.642c0.057,0,0.107,0.018,0.154,0.052
	c0.046,0.035,0.084,0.088,0.115,0.158c0.031,0.071,0.055,0.169,0.071,0.289c0.015,0.12,0.022,0.27,0.022,0.442
	c0,0.18-0.008,0.328-0.022,0.447c-0.017,0.116-0.04,0.213-0.071,0.283c-0.031,0.072-0.069,0.122-0.115,0.153
	c-0.047,0.031-0.098,0.048-0.154,0.048h-3.642v3.396h4.341c0.055,0,0.106,0.019,0.152,0.052c0.048,0.036,0.087,0.09,0.117,0.163
	c0.031,0.075,0.055,0.173,0.069,0.294C113.334,29.485,113.342,29.635,113.342,29.816z"/>
<linearGradient id="SVGID_37_" gradientUnits="userSpaceOnUse" x1="55.9814" y1="13.5098" x2="178.106" y2="36.4236">
	<stop  offset="0" style="stop-color:#69BA80"/>
	<stop  offset="0.005" style="stop-color:#69BA80"/>
	<stop  offset="0.1462" style="stop-color:#6ABC87"/>
	<stop  offset="0.3576" style="stop-color:#6EC29C"/>
	<stop  offset="0.6127" style="stop-color:#74CBBD"/>
	<stop  offset="0.8998" style="stop-color:#7DD7EB"/>
	<stop  offset="1" style="stop-color:#80DCFD"/>
</linearGradient>
<path fill="url(#SVGID_37_)" d="M125.664,31.389c0.111,0.241,0.192,0.454,0.244,0.634c0.055,0.179,0.081,0.354,0.081,0.521
	c0,0.286-0.055,0.53-0.16,0.736c-0.104,0.204-0.248,0.373-0.427,0.503c-0.181,0.131-0.393,0.227-0.633,0.291
	c-0.243,0.069-0.505,0.101-0.782,0.101c-0.269,0-0.519-0.021-0.756-0.057c-0.235-0.037-0.429-0.077-0.581-0.121
	c-0.151-0.043-0.261-0.081-0.325-0.11c-0.066-0.033-0.112-0.072-0.141-0.123c-0.027-0.048-0.049-0.112-0.06-0.189
	c-0.014-0.077-0.021-0.188-0.021-0.321c0-0.25,0.024-0.421,0.071-0.519c0.046-0.096,0.132-0.145,0.256-0.145h1.079
	c0.181,0,0.316-0.037,0.406-0.116c0.09-0.077,0.135-0.184,0.135-0.319c0-0.075-0.017-0.16-0.048-0.252
	c-0.03-0.094-0.067-0.189-0.111-0.29l-0.314-0.715c-0.536-0.069-1.053-0.219-1.557-0.452c-0.502-0.233-0.968-0.584-1.392-1.053
	c-0.426-0.468-0.763-1.082-1.016-1.838c-0.251-0.758-0.377-1.639-0.377-2.645c0-1.025,0.137-1.934,0.409-2.729
	c0.273-0.794,0.656-1.462,1.146-2.002s1.078-0.95,1.765-1.229c0.686-0.279,1.44-0.419,2.266-0.419c0.336,0,0.659,0.028,0.969,0.083
	c0.311,0.056,0.599,0.129,0.862,0.219c0.265,0.091,0.501,0.194,0.713,0.312c0.21,0.118,0.358,0.219,0.441,0.304
	c0.085,0.083,0.142,0.153,0.173,0.209c0.031,0.055,0.056,0.127,0.074,0.213c0.02,0.087,0.032,0.19,0.042,0.308
	c0.009,0.118,0.014,0.264,0.014,0.438c0,0.186-0.006,0.344-0.019,0.474s-0.034,0.237-0.066,0.317
	c-0.031,0.081-0.067,0.141-0.111,0.178c-0.044,0.037-0.092,0.054-0.148,0.054c-0.092,0-0.211-0.053-0.353-0.162
	c-0.144-0.109-0.328-0.231-0.555-0.365c-0.227-0.132-0.497-0.253-0.81-0.363c-0.314-0.108-0.688-0.163-1.123-0.163
	c-0.478,0-0.905,0.097-1.28,0.294c-0.376,0.194-0.695,0.475-0.959,0.837s-0.465,0.802-0.601,1.318
	c-0.138,0.514-0.205,1.095-0.205,1.741c0,0.708,0.073,1.321,0.219,1.84c0.146,0.519,0.354,0.943,0.623,1.278
	c0.271,0.336,0.597,0.586,0.979,0.75c0.381,0.165,0.811,0.246,1.289,0.246c0.415,0,0.785-0.05,1.108-0.147
	c0.322-0.101,0.599-0.213,0.828-0.34s0.419-0.24,0.563-0.34c0.146-0.101,0.26-0.148,0.34-0.148c0.063,0,0.111,0.013,0.149,0.036
	c0.037,0.024,0.068,0.074,0.094,0.149c0.023,0.075,0.042,0.18,0.055,0.311c0.013,0.134,0.019,0.313,0.019,0.536
	c0,0.156-0.005,0.288-0.013,0.394c-0.011,0.111-0.024,0.205-0.043,0.282c-0.018,0.077-0.043,0.144-0.074,0.2
	c-0.031,0.056-0.081,0.12-0.149,0.189c-0.068,0.073-0.2,0.165-0.396,0.275c-0.195,0.112-0.411,0.215-0.646,0.309
	c-0.236,0.092-0.473,0.166-0.708,0.219c-0.236,0.052-0.46,0.087-0.671,0.106L125.664,31.389z"/>
<linearGradient id="SVGID_38_" gradientUnits="userSpaceOnUse" x1="56.814" y1="9.1567" x2="178.913" y2="32.0658">
	<stop  offset="0" style="stop-color:#69BA80"/>
	<stop  offset="0.005" style="stop-color:#69BA80"/>
	<stop  offset="0.1462" style="stop-color:#6ABC87"/>
	<stop  offset="0.3576" style="stop-color:#6EC29C"/>
	<stop  offset="0.6127" style="stop-color:#74CBBD"/>
	<stop  offset="0.8998" style="stop-color:#7DD7EB"/>
	<stop  offset="1" style="stop-color:#80DCFD"/>
</linearGradient>
<path fill="url(#SVGID_38_)" d="M132.442,16.49c0,0.441-0.093,0.75-0.276,0.928c-0.183,0.176-0.522,0.265-1.02,0.265
	c-0.496,0-0.835-0.085-1.014-0.256c-0.182-0.17-0.271-0.467-0.271-0.889c0-0.447,0.093-0.757,0.279-0.931
	c0.186-0.174,0.527-0.261,1.024-0.261s0.832,0.083,1.011,0.251C132.352,15.765,132.442,16.063,132.442,16.49z M132.367,30.439
	c0,0.061-0.021,0.117-0.061,0.167c-0.041,0.05-0.108,0.092-0.2,0.121c-0.095,0.031-0.219,0.057-0.372,0.075
	c-0.156,0.019-0.355,0.027-0.596,0.027c-0.238,0-0.434-0.009-0.593-0.027c-0.157-0.019-0.284-0.044-0.376-0.075
	c-0.095-0.029-0.16-0.071-0.201-0.121c-0.039-0.05-0.06-0.106-0.06-0.167V19.061c0-0.063,0.021-0.118,0.06-0.168
	c0.041-0.05,0.109-0.09,0.205-0.121c0.097-0.031,0.223-0.056,0.378-0.074c0.154-0.019,0.349-0.028,0.587-0.028
	c0.24,0,0.439,0.009,0.596,0.028c0.153,0.018,0.277,0.042,0.372,0.074c0.092,0.031,0.159,0.071,0.2,0.121
	c0.04,0.05,0.061,0.105,0.061,0.168V30.439z"/>
<linearGradient id="SVGID_39_" gradientUnits="userSpaceOnUse" x1="56.5083" y1="10.7607" x2="178.6173" y2="33.6717">
	<stop  offset="0" style="stop-color:#69BA80"/>
	<stop  offset="0.005" style="stop-color:#69BA80"/>
	<stop  offset="0.1462" style="stop-color:#6ABC87"/>
	<stop  offset="0.3576" style="stop-color:#6EC29C"/>
	<stop  offset="0.6127" style="stop-color:#74CBBD"/>
	<stop  offset="0.8998" style="stop-color:#7DD7EB"/>
	<stop  offset="1" style="stop-color:#80DCFD"/>
</linearGradient>
<path fill="url(#SVGID_39_)" d="M140.839,31.389c0.112,0.241,0.193,0.454,0.245,0.634c0.055,0.179,0.08,0.354,0.08,0.521
	c0,0.286-0.054,0.53-0.159,0.736c-0.105,0.204-0.248,0.373-0.426,0.503c-0.182,0.131-0.394,0.227-0.634,0.291
	c-0.243,0.069-0.504,0.101-0.782,0.101c-0.269,0-0.52-0.021-0.755-0.057c-0.236-0.037-0.43-0.077-0.583-0.121
	c-0.15-0.043-0.26-0.081-0.325-0.11c-0.065-0.033-0.111-0.072-0.141-0.123c-0.026-0.048-0.048-0.112-0.06-0.189
	c-0.013-0.077-0.02-0.188-0.02-0.321c0-0.25,0.024-0.421,0.071-0.519c0.046-0.096,0.131-0.145,0.255-0.145h1.081
	c0.18,0,0.315-0.037,0.404-0.116c0.091-0.077,0.136-0.184,0.136-0.319c0-0.075-0.017-0.16-0.048-0.252
	c-0.03-0.094-0.067-0.189-0.111-0.29l-0.315-0.715c-0.535-0.069-1.053-0.219-1.556-0.452s-0.967-0.584-1.392-1.053
	c-0.426-0.468-0.764-1.082-1.016-1.838c-0.251-0.758-0.377-1.639-0.377-2.645c0-1.025,0.136-1.934,0.409-2.729
	c0.273-0.794,0.656-1.462,1.146-2.002c0.491-0.54,1.079-0.95,1.765-1.229c0.687-0.279,1.441-0.419,2.268-0.419
	c0.335,0,0.658,0.028,0.969,0.083c0.31,0.056,0.598,0.129,0.86,0.219c0.266,0.091,0.502,0.194,0.714,0.312
	c0.21,0.118,0.358,0.219,0.441,0.304c0.085,0.083,0.142,0.153,0.172,0.209c0.031,0.055,0.057,0.127,0.075,0.213
	c0.019,0.087,0.032,0.19,0.042,0.308c0.009,0.118,0.014,0.264,0.014,0.438c0,0.186-0.007,0.344-0.02,0.474
	c-0.011,0.13-0.034,0.237-0.065,0.317c-0.03,0.081-0.067,0.141-0.111,0.178c-0.044,0.037-0.092,0.054-0.149,0.054
	c-0.092,0-0.21-0.053-0.352-0.162c-0.145-0.109-0.328-0.231-0.555-0.365c-0.227-0.132-0.497-0.253-0.811-0.363
	c-0.313-0.108-0.688-0.163-1.122-0.163c-0.478,0-0.905,0.097-1.28,0.294c-0.375,0.194-0.695,0.475-0.959,0.837
	s-0.465,0.802-0.6,1.318c-0.139,0.514-0.206,1.095-0.206,1.741c0,0.708,0.072,1.321,0.22,1.84c0.145,0.519,0.354,0.943,0.622,1.278
	c0.271,0.336,0.597,0.586,0.979,0.75c0.381,0.165,0.811,0.246,1.289,0.246c0.415,0,0.785-0.05,1.108-0.147
	c0.323-0.101,0.598-0.213,0.828-0.34c0.229-0.127,0.418-0.24,0.563-0.34c0.146-0.101,0.259-0.148,0.34-0.148
	c0.063,0,0.112,0.013,0.148,0.036c0.038,0.024,0.069,0.074,0.094,0.149s0.043,0.18,0.056,0.311c0.013,0.134,0.019,0.313,0.019,0.536
	c0,0.156-0.005,0.288-0.014,0.394c-0.01,0.111-0.023,0.205-0.043,0.282c-0.018,0.077-0.042,0.144-0.073,0.2
	c-0.031,0.056-0.081,0.12-0.149,0.189c-0.067,0.073-0.2,0.165-0.396,0.275c-0.194,0.112-0.41,0.215-0.646,0.309
	c-0.237,0.092-0.473,0.166-0.708,0.219c-0.236,0.052-0.46,0.087-0.671,0.106L140.839,31.389z"/>
<linearGradient id="SVGID_40_" gradientUnits="userSpaceOnUse" x1="57.1069" y1="7.5483" x2="179.2239" y2="30.4608">
	<stop  offset="0" style="stop-color:#69BA80"/>
	<stop  offset="0.005" style="stop-color:#69BA80"/>
	<stop  offset="0.1462" style="stop-color:#6ABC87"/>
	<stop  offset="0.3576" style="stop-color:#6EC29C"/>
	<stop  offset="0.6127" style="stop-color:#74CBBD"/>
	<stop  offset="0.8998" style="stop-color:#7DD7EB"/>
	<stop  offset="1" style="stop-color:#80DCFD"/>
</linearGradient>
<path fill="url(#SVGID_40_)" d="M152.227,29.816c0,0.18-0.007,0.329-0.024,0.452c-0.015,0.119-0.038,0.217-0.069,0.292
	c-0.03,0.075-0.069,0.13-0.117,0.161c-0.046,0.035-0.098,0.054-0.151,0.054h-6.054c-0.204,0-0.376-0.061-0.518-0.182
	c-0.138-0.123-0.208-0.318-0.208-0.592V19.499c0-0.273,0.07-0.471,0.208-0.591c0.142-0.122,0.313-0.183,0.518-0.183h6.016
	c0.056,0,0.104,0.016,0.149,0.047c0.042,0.031,0.079,0.085,0.111,0.163c0.03,0.078,0.054,0.177,0.069,0.298
	c0.015,0.122,0.022,0.275,0.022,0.46c0,0.174-0.008,0.321-0.022,0.443c-0.016,0.12-0.039,0.219-0.069,0.293
	c-0.032,0.074-0.069,0.129-0.111,0.163c-0.045,0.034-0.094,0.051-0.149,0.051h-4.303v2.943h3.641c0.057,0,0.107,0.018,0.154,0.052
	c0.046,0.035,0.085,0.088,0.116,0.158c0.031,0.071,0.054,0.169,0.07,0.289c0.015,0.12,0.023,0.27,0.023,0.442
	c0,0.18-0.009,0.328-0.023,0.447c-0.017,0.116-0.039,0.213-0.07,0.283c-0.031,0.072-0.07,0.122-0.116,0.153
	c-0.047,0.031-0.098,0.048-0.154,0.048h-3.641v3.396h4.341c0.054,0,0.105,0.019,0.151,0.052c0.048,0.036,0.087,0.09,0.117,0.163
	c0.031,0.075,0.055,0.173,0.069,0.294C152.22,29.485,152.227,29.635,152.227,29.816z"/>
<linearGradient id="SVGID_41_" gradientUnits="userSpaceOnUse" x1="57.4238" y1="5.7495" x2="179.5652" y2="28.6665">
	<stop  offset="0" style="stop-color:#69BA80"/>
	<stop  offset="0.005" style="stop-color:#69BA80"/>
	<stop  offset="0.1462" style="stop-color:#6ABC87"/>
	<stop  offset="0.3576" style="stop-color:#6EC29C"/>
	<stop  offset="0.6127" style="stop-color:#74CBBD"/>
	<stop  offset="0.8998" style="stop-color:#7DD7EB"/>
	<stop  offset="1" style="stop-color:#80DCFD"/>
</linearGradient>
<path fill="url(#SVGID_41_)" d="M163.187,30.413c0,0.066-0.017,0.129-0.051,0.181c-0.035,0.053-0.1,0.097-0.196,0.128
	c-0.096,0.035-0.228,0.063-0.396,0.081c-0.165,0.019-0.378,0.027-0.633,0.027c-0.403,0-0.692-0.015-0.87-0.046
	c-0.176-0.031-0.305-0.077-0.382-0.14c-0.078-0.063-0.139-0.138-0.181-0.224l-3.642-5.718v5.718c0,0.069-0.019,0.127-0.056,0.178
	c-0.037,0.05-0.102,0.092-0.196,0.123c-0.092,0.035-0.217,0.063-0.372,0.081s-0.353,0.027-0.597,0.027
	c-0.235,0-0.432-0.009-0.591-0.027c-0.157-0.019-0.282-0.046-0.377-0.081c-0.092-0.031-0.159-0.073-0.2-0.123
	c-0.04-0.051-0.061-0.108-0.061-0.178V19.07c0-0.069,0.021-0.127,0.061-0.177c0.041-0.05,0.108-0.09,0.2-0.121
	c0.095-0.031,0.22-0.056,0.377-0.074c0.159-0.019,0.355-0.028,0.591-0.028c0.244,0,0.441,0.009,0.597,0.028
	c0.155,0.018,0.28,0.042,0.372,0.074c0.095,0.031,0.159,0.071,0.196,0.121c0.037,0.05,0.056,0.108,0.056,0.177v5.131l3.529-5.122
	c0.043-0.081,0.097-0.147,0.158-0.201c0.063-0.052,0.143-0.094,0.242-0.125s0.226-0.052,0.382-0.065
	c0.154-0.012,0.354-0.019,0.597-0.019c0.247,0,0.452,0.009,0.613,0.028c0.161,0.018,0.29,0.045,0.387,0.079s0.163,0.075,0.2,0.125
	c0.038,0.05,0.057,0.105,0.057,0.168c0,0.105-0.028,0.214-0.085,0.325c-0.055,0.112-0.161,0.289-0.315,0.532l-3.307,4.33
	l3.604,5.447c0.136,0.254,0.218,0.423,0.246,0.507C163.173,30.296,163.187,30.362,163.187,30.413z"/>
<linearGradient id="SVGID_42_" gradientUnits="userSpaceOnUse" x1="57.4893" y1="5.48" x2="179.6138" y2="28.3939">
	<stop  offset="0" style="stop-color:#69BA80"/>
	<stop  offset="0.005" style="stop-color:#69BA80"/>
	<stop  offset="0.1462" style="stop-color:#6ABC87"/>
	<stop  offset="0.3576" style="stop-color:#6EC29C"/>
	<stop  offset="0.6127" style="stop-color:#74CBBD"/>
	<stop  offset="0.8998" style="stop-color:#7DD7EB"/>
	<stop  offset="1" style="stop-color:#80DCFD"/>
</linearGradient>
<path fill="url(#SVGID_42_)" d="M169.965,31.389c0.112,0.241,0.194,0.454,0.246,0.634c0.054,0.179,0.08,0.354,0.08,0.521
	c0,0.286-0.054,0.53-0.159,0.736c-0.105,0.204-0.248,0.373-0.427,0.503c-0.182,0.131-0.393,0.227-0.633,0.291
	c-0.244,0.069-0.505,0.101-0.783,0.101c-0.268,0-0.52-0.021-0.755-0.057c-0.235-0.037-0.43-0.077-0.581-0.121
	c-0.152-0.043-0.262-0.081-0.326-0.11c-0.066-0.033-0.112-0.072-0.141-0.123c-0.026-0.048-0.049-0.112-0.059-0.189
	c-0.014-0.077-0.021-0.188-0.021-0.321c0-0.25,0.023-0.421,0.071-0.519c0.046-0.096,0.131-0.145,0.255-0.145h1.08
	c0.181,0,0.316-0.037,0.404-0.116c0.091-0.077,0.136-0.184,0.136-0.319c0-0.075-0.016-0.16-0.047-0.252
	c-0.031-0.094-0.068-0.189-0.111-0.29l-0.315-0.715c-0.535-0.069-1.054-0.219-1.556-0.452c-0.503-0.233-0.968-0.584-1.392-1.053
	c-0.427-0.468-0.765-1.082-1.017-1.838c-0.25-0.758-0.377-1.639-0.377-2.645c0-1.025,0.137-1.934,0.409-2.729
	c0.273-0.794,0.656-1.462,1.146-2.002s1.079-0.95,1.765-1.229c0.687-0.279,1.441-0.419,2.267-0.419c0.336,0,0.658,0.028,0.969,0.083
	c0.311,0.056,0.599,0.129,0.862,0.219c0.264,0.091,0.501,0.194,0.712,0.312c0.211,0.118,0.358,0.219,0.441,0.304
	c0.085,0.083,0.142,0.153,0.173,0.209c0.031,0.055,0.056,0.127,0.074,0.213c0.019,0.087,0.032,0.19,0.043,0.308
	c0.009,0.118,0.014,0.264,0.014,0.438c0,0.186-0.007,0.344-0.019,0.474c-0.013,0.13-0.035,0.237-0.066,0.317
	c-0.031,0.081-0.068,0.141-0.111,0.178c-0.044,0.037-0.092,0.054-0.148,0.054c-0.092,0-0.212-0.053-0.353-0.162
	c-0.146-0.109-0.328-0.231-0.556-0.365c-0.227-0.132-0.496-0.253-0.81-0.363c-0.314-0.108-0.688-0.163-1.122-0.163
	c-0.479,0-0.905,0.097-1.28,0.294c-0.376,0.194-0.695,0.475-0.96,0.837c-0.263,0.363-0.464,0.802-0.6,1.318
	c-0.138,0.514-0.206,1.095-0.206,1.741c0,0.708,0.074,1.321,0.22,1.84c0.145,0.519,0.354,0.943,0.623,1.278
	c0.271,0.336,0.597,0.586,0.979,0.75c0.38,0.165,0.81,0.246,1.289,0.246c0.415,0,0.785-0.05,1.107-0.147
	c0.323-0.101,0.598-0.213,0.829-0.34c0.229-0.127,0.417-0.24,0.563-0.34c0.146-0.101,0.259-0.148,0.34-0.148
	c0.062,0,0.111,0.013,0.148,0.036c0.038,0.024,0.068,0.074,0.093,0.149c0.025,0.075,0.044,0.18,0.057,0.311
	c0.013,0.134,0.019,0.313,0.019,0.536c0,0.156-0.005,0.288-0.015,0.394c-0.009,0.111-0.022,0.205-0.041,0.282
	c-0.02,0.077-0.044,0.144-0.074,0.2c-0.031,0.056-0.081,0.12-0.149,0.189c-0.068,0.073-0.2,0.165-0.396,0.275
	c-0.195,0.112-0.412,0.215-0.647,0.309c-0.236,0.092-0.472,0.166-0.708,0.219c-0.235,0.052-0.459,0.087-0.67,0.106L169.965,31.389z"
	/>
<linearGradient id="SVGID_43_" gradientUnits="userSpaceOnUse" x1="58.3315" y1="1.1289" x2="180.4305" y2="24.038">
	<stop  offset="0" style="stop-color:#69BA80"/>
	<stop  offset="0.005" style="stop-color:#69BA80"/>
	<stop  offset="0.1462" style="stop-color:#6ABC87"/>
	<stop  offset="0.3576" style="stop-color:#6EC29C"/>
	<stop  offset="0.6127" style="stop-color:#74CBBD"/>
	<stop  offset="0.8998" style="stop-color:#7DD7EB"/>
	<stop  offset="1" style="stop-color:#80DCFD"/>
</linearGradient>
<path fill="url(#SVGID_43_)" d="M176.745,16.49c0,0.441-0.092,0.75-0.275,0.928c-0.183,0.176-0.523,0.265-1.02,0.265
	s-0.836-0.085-1.014-0.256c-0.182-0.17-0.271-0.467-0.271-0.889c0-0.447,0.094-0.757,0.279-0.931
	c0.187-0.174,0.527-0.261,1.024-0.261s0.833,0.083,1.011,0.251C176.655,15.765,176.745,16.063,176.745,16.49z M176.67,30.439
	c0,0.061-0.021,0.117-0.062,0.167s-0.107,0.092-0.199,0.121c-0.095,0.031-0.219,0.057-0.373,0.075
	c-0.156,0.019-0.354,0.027-0.595,0.027c-0.238,0-0.434-0.009-0.593-0.027c-0.158-0.019-0.284-0.044-0.376-0.075
	c-0.095-0.029-0.16-0.071-0.201-0.121c-0.04-0.05-0.061-0.106-0.061-0.167V19.061c0-0.063,0.021-0.118,0.061-0.168
	c0.041-0.05,0.108-0.09,0.204-0.121c0.098-0.031,0.223-0.056,0.378-0.074c0.155-0.019,0.35-0.028,0.588-0.028
	c0.24,0,0.438,0.009,0.595,0.028c0.154,0.018,0.278,0.042,0.373,0.074c0.092,0.031,0.159,0.071,0.199,0.121
	c0.04,0.05,0.062,0.105,0.062,0.168V30.439z"/>
</svg>
